<?xml version="1.0" standalone="no"?>
<svg xmlns:xlink="http://www.w3.org/1999/xlink" id="wave" style="transform:rotate(0deg); transition: 0.3s" viewBox="0 0 1440 250" version="1.1" xmlns="http://www.w3.org/2000/svg"><defs><linearGradient id="sw-gradient-0" x1="0" x2="0" y1="1" y2="0"><stop stop-color="rgba(34, 74, 73, 1)" offset="0%" data-darkreader-inline-stopcolor="" style="--darkreader-inline-stopcolor: #1b3b3a;"/><stop stop-color="rgba(34, 90, 88, 1)" offset="100%" data-darkreader-inline-stopcolor="" style="--darkreader-inline-stopcolor: #1b4846;"/></linearGradient></defs><path style="transform:translate(0, 0px); opacity:1" fill="url(#sw-gradient-0)" d="M0,200L120,195.8C240,192,480,183,720,170.8C960,158,1200,142,1440,145.8C1680,150,1920,175,2160,154.2C2400,133,2640,67,2880,45.8C3120,25,3360,50,3600,66.7C3840,83,4080,92,4320,112.5C4560,133,4800,167,5040,154.2C5280,142,5520,83,5760,58.3C6000,33,6240,42,6480,41.7C6720,42,6960,33,7200,33.3C7440,33,7680,42,7920,45.8C8160,50,8400,50,8640,75C8880,100,9120,150,9360,154.2C9600,158,9840,117,10080,100C10320,83,10560,92,10800,100C11040,108,11280,117,11520,137.5C11760,158,12000,192,12240,200C12480,208,12720,192,12960,183.3C13200,175,13440,175,13680,154.2C13920,133,14160,92,14400,87.5C14640,83,14880,117,15120,145.8C15360,175,15600,200,15840,179.2C16080,158,16320,92,16560,91.7C16800,92,17040,158,17160,191.7L17280,225L17280,250L17160,250C17040,250,16800,250,16560,250C16320,250,16080,250,15840,250C15600,250,15360,250,15120,250C14880,250,14640,250,14400,250C14160,250,13920,250,13680,250C13440,250,13200,250,12960,250C12720,250,12480,250,12240,250C12000,250,11760,250,11520,250C11280,250,11040,250,10800,250C10560,250,10320,250,10080,250C9840,250,9600,250,9360,250C9120,250,8880,250,8640,250C8400,250,8160,250,7920,250C7680,250,7440,250,7200,250C6960,250,6720,250,6480,250C6240,250,6000,250,5760,250C5520,250,5280,250,5040,250C4800,250,4560,250,4320,250C4080,250,3840,250,3600,250C3360,250,3120,250,2880,250C2640,250,2400,250,2160,250C1920,250,1680,250,1440,250C1200,250,960,250,720,250C480,250,240,250,120,250L0,250Z"/><defs><linearGradient id="sw-gradient-1" x1="0" x2="0" y1="1" y2="0"><stop stop-color="rgba(34, 74, 73, 1)" offset="0%" data-darkreader-inline-stopcolor="" style="--darkreader-inline-stopcolor: #1b3b3a;"/><stop stop-color="rgba(34, 90, 88, 1)" offset="100%" data-darkreader-inline-stopcolor="" style="--darkreader-inline-stopcolor: #1b4846;"/></linearGradient></defs><path style="transform:translate(0, 50px); opacity:0.9" fill="url(#sw-gradient-1)" d="M0,175L120,179.2C240,183,480,192,720,179.2C960,167,1200,133,1440,120.8C1680,108,1920,117,2160,125C2400,133,2640,142,2880,150C3120,158,3360,167,3600,179.2C3840,192,4080,208,4320,204.2C4560,200,4800,175,5040,158.3C5280,142,5520,133,5760,137.5C6000,142,6240,158,6480,170.8C6720,183,6960,192,7200,183.3C7440,175,7680,150,7920,133.3C8160,117,8400,108,8640,120.8C8880,133,9120,167,9360,150C9600,133,9840,67,10080,70.8C10320,75,10560,150,10800,150C11040,150,11280,75,11520,66.7C11760,58,12000,117,12240,116.7C12480,117,12720,58,12960,37.5C13200,17,13440,33,13680,58.3C13920,83,14160,117,14400,125C14640,133,14880,117,15120,100C15360,83,15600,67,15840,75C16080,83,16320,117,16560,120.8C16800,125,17040,100,17160,87.5L17280,75L17280,250L17160,250C17040,250,16800,250,16560,250C16320,250,16080,250,15840,250C15600,250,15360,250,15120,250C14880,250,14640,250,14400,250C14160,250,13920,250,13680,250C13440,250,13200,250,12960,250C12720,250,12480,250,12240,250C12000,250,11760,250,11520,250C11280,250,11040,250,10800,250C10560,250,10320,250,10080,250C9840,250,9600,250,9360,250C9120,250,8880,250,8640,250C8400,250,8160,250,7920,250C7680,250,7440,250,7200,250C6960,250,6720,250,6480,250C6240,250,6000,250,5760,250C5520,250,5280,250,5040,250C4800,250,4560,250,4320,250C4080,250,3840,250,3600,250C3360,250,3120,250,2880,250C2640,250,2400,250,2160,250C1920,250,1680,250,1440,250C1200,250,960,250,720,250C480,250,240,250,120,250L0,250Z"/><defs><linearGradient id="sw-gradient-2" x1="0" x2="0" y1="1" y2="0"><stop stop-color="rgba(34, 74, 73, 1)" offset="0%" data-darkreader-inline-stopcolor="" style="--darkreader-inline-stopcolor: #1b3b3a;"/><stop stop-color="rgba(34, 90, 88, 1)" offset="100%" data-darkreader-inline-stopcolor="" style="--darkreader-inline-stopcolor: #1b4846;"/></linearGradient></defs><path style="transform:translate(0, 100px); opacity:0.8" fill="url(#sw-gradient-2)" d="M0,125L120,129.2C240,133,480,142,720,154.2C960,167,1200,183,1440,166.7C1680,150,1920,100,2160,79.2C2400,58,2640,67,2880,62.5C3120,58,3360,42,3600,66.7C3840,92,4080,158,4320,183.3C4560,208,4800,192,5040,191.7C5280,192,5520,208,5760,195.8C6000,183,6240,142,6480,129.2C6720,117,6960,133,7200,116.7C7440,100,7680,50,7920,62.5C8160,75,8400,150,8640,162.5C8880,175,9120,125,9360,104.2C9600,83,9840,92,10080,83.3C10320,75,10560,50,10800,37.5C11040,25,11280,25,11520,45.8C11760,67,12000,108,12240,133.3C12480,158,12720,167,12960,145.8C13200,125,13440,75,13680,66.7C13920,58,14160,92,14400,100C14640,108,14880,92,15120,75C15360,58,15600,42,15840,54.2C16080,67,16320,108,16560,104.2C16800,100,17040,50,17160,25L17280,0L17280,250L17160,250C17040,250,16800,250,16560,250C16320,250,16080,250,15840,250C15600,250,15360,250,15120,250C14880,250,14640,250,14400,250C14160,250,13920,250,13680,250C13440,250,13200,250,12960,250C12720,250,12480,250,12240,250C12000,250,11760,250,11520,250C11280,250,11040,250,10800,250C10560,250,10320,250,10080,250C9840,250,9600,250,9360,250C9120,250,8880,250,8640,250C8400,250,8160,250,7920,250C7680,250,7440,250,7200,250C6960,250,6720,250,6480,250C6240,250,6000,250,5760,250C5520,250,5280,250,5040,250C4800,250,4560,250,4320,250C4080,250,3840,250,3600,250C3360,250,3120,250,2880,250C2640,250,2400,250,2160,250C1920,250,1680,250,1440,250C1200,250,960,250,720,250C480,250,240,250,120,250L0,250Z"/></svg>