<svg id="wave" style="transform:rotate(0deg); transition: 0.3s" viewBox="0 0 1440 150" version="1.1" xmlns="http://www.w3.org/2000/svg"><defs><linearGradient id="sw-gradient-0" x1="0" x2="0" y1="1" y2="0"><stop stop-color="rgba(68, 164, 160, 1)" offset="0%"></stop><stop stop-color="rgba(68, 164, 160, 1)" offset="100%"></stop></linearGradient></defs><path style="transform:translate(0, 0px); opacity:1" fill="url(#sw-gradient-0)" d="M0,90L80,77.5C160,65,320,40,480,40C640,40,800,65,960,75C1120,85,1280,80,1440,77.5C1600,75,1760,75,1920,82.5C2080,90,2240,105,2400,115C2560,125,2720,130,2880,132.5C3040,135,3200,135,3360,122.5C3520,110,3680,85,3840,65C4000,45,4160,30,4320,35C4480,40,4640,65,4800,75C4960,85,5120,80,5280,65C5440,50,5600,25,5760,22.5C5920,20,6080,40,6240,52.5C6400,65,6560,70,6720,62.5C6880,55,7040,35,7200,32.5C7360,30,7520,45,7680,47.5C7840,50,8000,40,8160,30C8320,20,8480,10,8640,17.5C8800,25,8960,50,9120,60C9280,70,9440,65,9600,70C9760,75,9920,90,10080,100C10240,110,10400,115,10560,117.5C10720,120,10880,120,11040,112.5C11200,105,11360,90,11440,82.5L11520,75L11520,150L11440,150C11360,150,11200,150,11040,150C10880,150,10720,150,10560,150C10400,150,10240,150,10080,150C9920,150,9760,150,9600,150C9440,150,9280,150,9120,150C8960,150,8800,150,8640,150C8480,150,8320,150,8160,150C8000,150,7840,150,7680,150C7520,150,7360,150,7200,150C7040,150,6880,150,6720,150C6560,150,6400,150,6240,150C6080,150,5920,150,5760,150C5600,150,5440,150,5280,150C5120,150,4960,150,4800,150C4640,150,4480,150,4320,150C4160,150,4000,150,3840,150C3680,150,3520,150,3360,150C3200,150,3040,150,2880,150C2720,150,2560,150,2400,150C2240,150,2080,150,1920,150C1760,150,1600,150,1440,150C1280,150,1120,150,960,150C800,150,640,150,480,150C320,150,160,150,80,150L0,150Z"></path></svg>